# xmcd
#
# Track frame offsets:
#	150
#	20745
#	45068
#	69675
#	101950
#	117423
#	143375
#	157188
#	177130
#	200560
#
# Disc length: 3020 seconds
#
# Revision: 1
# Processed by: cddbd v1.5.1PL0 Copyright (c) Steve Scherf et al.
# Submitted via: CDex 1.50Beta5
#
DISCID=890bca0a
DTITLE=J&B - TIME 4 REAL,THE
DYEAR=2003
DGENRE=Fusion
TTITLE0=へなちょこぐるぐるべろべろばぁ〜
TTITLE1=TAKE A BREAK
TTITLE2=LIKE THIS WAY
TTITLE3=JAM and BUTTER
TTITLE4=BE-BOP-A-LULA
TTITLE5=TOUCH
TTITLE6=TREMBLE
TTITLE7=FIELD OF DREAMS
TTITLE8=I FEEL FINE
TTITLE9=速いやつ
EXTD=
EXTT0=
EXTT1=
EXTT2=
EXTT3=
EXTT4=
EXTT5=
EXTT6=
EXTT7=
EXTT8=
EXTT9=
PLAYORDER=
